<mxfile host="app.diagrams.net" modified="2020-10-10T21:40:34.258Z" agent="5.0 (X11; Linux x86_64) AppleWebKit/537.36 (KHTML, like Gecko) Chrome/85.0.4183.121 Safari/537.36" etag="dX0TZJr1gtK2hgxc2Db_" version="13.7.9" type="github">
  <diagram id="L02AoMZ-FtlAwHA16ISg" name="Page-1">
    <mxGraphModel dx="1422" dy="835" grid="1" gridSize="10" guides="1" tooltips="1" connect="1" arrows="1" fold="1" page="1" pageScale="1" pageWidth="827" pageHeight="1169" math="0" shadow="0">
      <root>
        <mxCell id="0" />
        <mxCell id="1" parent="0" />
        <mxCell id="3yHeGJEqTzaflIRRjii3-2" style="edgeStyle=orthogonalEdgeStyle;rounded=0;orthogonalLoop=1;jettySize=auto;html=1;entryX=0.25;entryY=1;entryDx=0;entryDy=0;" edge="1" parent="1" source="3yHeGJEqTzaflIRRjii3-4" target="3yHeGJEqTzaflIRRjii3-3">
          <mxGeometry relative="1" as="geometry">
            <mxPoint x="210" y="270" as="targetPoint" />
          </mxGeometry>
        </mxCell>
        <mxCell id="3yHeGJEqTzaflIRRjii3-1" value="Home" style="rounded=0;whiteSpace=wrap;html=1;" vertex="1" parent="1">
          <mxGeometry x="40" y="240" width="120" height="60" as="geometry" />
        </mxCell>
        <mxCell id="3yHeGJEqTzaflIRRjii3-3" value="Cesta semanal" style="rounded=0;whiteSpace=wrap;html=1;" vertex="1" parent="1">
          <mxGeometry x="140" y="30" width="120" height="60" as="geometry" />
        </mxCell>
        <mxCell id="3yHeGJEqTzaflIRRjii3-4" value="USUARIO CLIENTE" style="text;html=1;resizable=0;autosize=1;align=center;verticalAlign=middle;points=[];fillColor=none;strokeColor=none;rounded=0;" vertex="1" parent="1">
          <mxGeometry x="40" y="190" width="120" height="20" as="geometry" />
        </mxCell>
        <mxCell id="3yHeGJEqTzaflIRRjii3-5" style="edgeStyle=orthogonalEdgeStyle;rounded=0;orthogonalLoop=1;jettySize=auto;html=1;entryX=0.25;entryY=1;entryDx=0;entryDy=0;" edge="1" parent="1" source="3yHeGJEqTzaflIRRjii3-1" target="3yHeGJEqTzaflIRRjii3-4">
          <mxGeometry relative="1" as="geometry">
            <mxPoint x="170" y="90" as="targetPoint" />
            <mxPoint x="100" y="240" as="sourcePoint" />
          </mxGeometry>
        </mxCell>
      </root>
    </mxGraphModel>
  </diagram>
</mxfile>
